<svg id="Capa_1" enable-background="new 0 0 512 512" height="512" viewBox="0 0 512 512" width="512" xmlns="http://www.w3.org/2000/svg"><path d="m423.141 97.121h-334.282l-41.465 41.941v352.098c0 11.509 9.33 20.839 20.839 20.839h375.533c11.509 0 20.839-9.33 20.839-20.839v-352.097z" fill="#88b9d4"/><path d="m443.766 0h-375.532c-11.51 0-20.839 9.33-20.839 20.839v144.669h417.211v-144.669c-.001-11.509-9.33-20.839-20.84-20.839z" fill="#c7eefb"/><path d="m429.003 103.051v388.11c0 11.509-9.33 20.839-20.839 20.839h35.603c11.509 0 20.839-9.33 20.839-20.839v-352.098z" fill="#6ea8c8"/><path d="m443.766 0h-14.764v165.508h35.603v-144.669c0-11.509-9.329-20.839-20.839-20.839z" fill="#97e4f9"/><g fill="#3c5959"><path d="m159.31 268.348h-44.298c-5.639 0-10.211-4.571-10.211-10.211v-44.298c0-5.639 4.571-10.211 10.211-10.211h44.298c5.639 0 10.211 4.571 10.211 10.211v44.298c-.001 5.64-4.572 10.211-10.211 10.211z"/><path d="m278.149 268.348h-44.298c-5.639 0-10.211-4.571-10.211-10.211v-44.298c0-5.639 4.571-10.211 10.211-10.211h44.298c5.639 0 10.211 4.571 10.211 10.211v44.298c0 5.64-4.572 10.211-10.211 10.211z"/><path d="m396.988 268.348h-44.298c-5.639 0-10.211-4.571-10.211-10.211v-44.298c0-5.639 4.571-10.211 10.211-10.211h44.298c5.639 0 10.211 4.571 10.211 10.211v44.298c0 5.64-4.572 10.211-10.211 10.211z"/><path d="m159.31 368.441h-44.298c-5.639 0-10.211-4.571-10.211-10.211v-44.298c0-5.639 4.571-10.211 10.211-10.211h44.298c5.639 0 10.211 4.571 10.211 10.211v44.298c-.001 5.639-4.572 10.211-10.211 10.211z"/><path d="m278.149 368.441h-44.298c-5.639 0-10.211-4.571-10.211-10.211v-44.298c0-5.639 4.571-10.211 10.211-10.211h44.298c5.639 0 10.211 4.571 10.211 10.211v44.298c0 5.639-4.572 10.211-10.211 10.211z"/><path d="m159.31 468.533h-44.298c-5.639 0-10.211-4.571-10.211-10.211v-44.298c0-5.639 4.571-10.211 10.211-10.211h44.298c5.639 0 10.211 4.571 10.211 10.211v44.298c-.001 5.64-4.572 10.211-10.211 10.211z"/><path d="m278.149 468.533h-44.298c-5.639 0-10.211-4.571-10.211-10.211v-44.298c0-5.639 4.571-10.211 10.211-10.211h44.298c5.639 0 10.211 4.571 10.211 10.211v44.298c0 5.64-4.572 10.211-10.211 10.211z"/></g><path d="m396.988 303.721h-44.298c-5.639 0-10.211 4.571-10.211 10.21v144.391c0 5.639 4.571 10.211 10.211 10.211h44.298c5.639 0 10.211-4.571 10.211-10.211v-144.39c0-5.639-4.572-10.211-10.211-10.211z" fill="#fb636f"/><path d="m93.495 118.359v-72.039c0-5.498 4.457-9.954 9.954-9.954h305.102c5.497 0 9.954 4.457 9.954 9.954v72.039c0 5.497-4.457 9.954-9.954 9.954h-305.102c-5.498 0-9.954-4.457-9.954-9.954z" fill="#62d8f9"/></svg>