<?xml version="1.0" standalone="no"?>
<!DOCTYPE svg PUBLIC "-//W3C//DTD SVG 20010904//EN"
 "http://www.w3.org/TR/2001/REC-SVG-20010904/DTD/svg10.dtd">
<svg version="1.0" xmlns="http://www.w3.org/2000/svg"
 width="100.000000pt" height="100.000000pt" viewBox="0 0 100.000000 100.000000"
 preserveAspectRatio="xMidYMid meet">
<metadata>
Created by potrace 1.15, written by Peter Selinger 2001-2017
</metadata>
<g transform="translate(0.000000,100.000000) scale(0.100000,-0.100000)"
fill="#000000" stroke="none">
<path d="M668 710 c-12 -19 -24 -20 -160 -20 -182 0 -178 3 -178 -123 -1 -75
-4 -96 -19 -114 -11 -13 -26 -23 -34 -23 -8 0 -20 -7 -27 -15 -7 -8 -18 -15
-25 -15 -18 0 -45 -34 -45 -57 0 -21 36 -60 46 -50 4 4 -4 15 -17 26 -21 16
-22 22 -11 45 6 15 20 26 31 26 10 0 21 7 25 15 3 8 16 15 30 15 16 0 26 7 31
23 9 28 13 12 17 -75 l4 -67 -51 -4 c-27 -2 60 -3 195 -3 l245 1 3 140 c2 96
6 142 15 147 9 6 9 8 0 8 -8 0 -13 14 -13 38 0 42 -14 62 -43 62 -28 0 -14 25
16 28 17 2 29 -2 33 -12 4 -11 14 -13 34 -10 22 5 31 1 41 -17 7 -13 18 -30
26 -37 21 -21 -1 -52 -40 -53 -31 -2 -31 -2 -4 -6 31 -5 67 19 67 44 0 8 -12
30 -27 50 -22 28 -32 34 -55 31 -16 -3 -33 1 -39 9 -17 20 -57 16 -71 -7z m50
-214 c2 -116 -1 -173 -9 -182 -9 -11 -47 -14 -169 -14 -87 0 -165 3 -174 6
-14 5 -16 31 -16 178 0 95 3 176 7 180 4 3 86 5 182 4 l176 -3 3 -169z"/>
<path d="M387 524 c-4 -4 -7 -47 -7 -95 0 -70 3 -88 16 -93 9 -3 73 -6 144 -6
97 0 130 3 139 14 8 9 11 45 9 98 l-3 83 -146 3 c-80 1 -148 -1 -152 -4z m288
-89 l0 -80 -142 -2 -143 -3 0 40 0 40 70 0 c66 0 70 -1 71 -22 l2 -23 4 23 c4
19 11 22 51 24 l47 2 -47 3 -48 4 0 40 0 40 68 -3 67 -3 0 -80z"/>
</g>
</svg>
