<?xml version="1.0" standalone="no"?>
<!DOCTYPE svg PUBLIC "-//W3C//DTD SVG 20010904//EN"
 "http://www.w3.org/TR/2001/REC-SVG-20010904/DTD/svg10.dtd">
<svg version="1.0" xmlns="http://www.w3.org/2000/svg"
 width="225.000000pt" height="225.000000pt" viewBox="0 0 225.000000 225.000000"
 preserveAspectRatio="xMidYMid meet">
<metadata>
Created by potrace 1.15, written by Peter Selinger 2001-2017
</metadata>
<g transform="translate(0.000000,225.000000) scale(0.100000,-0.100000)"
fill="#000000" stroke="none">
<path d="M1054 2190 c-96 -30 -179 -128 -190 -226 -12 -101 43 -206 136 -258
46 -26 65 -30 125 -30 60 0 79 4 125 30 92 52 148 157 137 256 -15 127 -118
225 -245 234 -31 2 -71 -1 -88 -6z m156 -51 c56 -25 86 -53 111 -101 85 -165
-62 -357 -241 -317 -105 23 -175 110 -175 214 2 162 161 269 305 204z"/>
<path d="M823 1679 c-92 -45 -163 -145 -178 -249 -7 -51 35 -281 60 -331 17
-32 62 -59 98 -59 23 0 26 -6 42 -92 9 -51 19 -103 22 -115 5 -23 4 -23 -92
-23 -82 0 -103 -3 -132 -21 -43 -27 -53 -47 -154 -319 -107 -288 -108 -325
-15 -394 27 -21 37 -21 651 -21 614 0 624 0 651 21 42 31 65 67 71 110 4 33
-11 83 -87 289 -51 138 -101 262 -112 278 -32 46 -67 57 -173 57 -52 0 -95 1
-95 3 0 13 42 212 46 218 3 5 17 9 32 9 34 0 68 23 86 59 27 51 68 272 61 327
-13 105 -85 208 -179 253 -55 27 -73 26 -119 -5 -55 -37 -114 -55 -182 -55
-68 0 -127 18 -182 55 -46 31 -65 32 -120 5z m123 -56 c59 -32 78 -37 151 -41
97 -5 153 8 220 50 46 30 46 30 85 12 52 -23 121 -99 143 -157 22 -59 17 -162
-14 -287 -25 -97 -44 -120 -101 -120 -44 0 -42 4 -65 -121 -34 -184 -104 -395
-157 -471 -27 -39 -82 -52 -128 -30 -65 32 -145 227 -195 476 -14 70 -28 132
-31 137 -3 5 -20 9 -37 9 -68 0 -85 32 -122 219 -10 50 -14 101 -11 125 9 54
49 135 83 168 22 20 99 68 110 68 1 0 33 -17 69 -37z m-40 -935 c78 -237 141
-306 258 -284 67 13 118 91 177 271 l32 97 98 -4 c90 -3 101 -5 124 -29 32
-32 205 -492 205 -545 0 -49 -42 -90 -101 -99 -24 -3 -299 -5 -611 -3 -558 3
-567 3 -595 24 -15 12 -34 37 -41 56 -13 33 -10 45 78 284 50 137 101 260 113
273 32 34 52 40 149 40 l86 1 28 -82z"/>
</g>
</svg>
