<?xml version="1.0" standalone="no"?>
<!DOCTYPE svg PUBLIC "-//W3C//DTD SVG 20010904//EN"
 "http://www.w3.org/TR/2001/REC-SVG-20010904/DTD/svg10.dtd">
<svg version="1.0" xmlns="http://www.w3.org/2000/svg"
 width="225.000000pt" height="225.000000pt" viewBox="0 0 225.000000 225.000000"
 preserveAspectRatio="xMidYMid meet">
<metadata>
Created by potrace 1.15, written by Peter Selinger 2001-2017
</metadata>
<g transform="translate(0.000000,225.000000) scale(0.100000,-0.100000)"
fill="#000000" stroke="none">
<path d="M975 2239 c-591 -74 -1031 -633 -966 -1228 28 -258 125 -470 301
-655 335 -353 844 -452 1284 -252 226 103 434 307 541 531 180 375 140 825
-103 1151 -251 337 -642 505 -1057 453z m265 -39 c121 -14 231 -45 337 -95
126 -59 193 -106 295 -203 242 -232 363 -557 329 -881 -15 -141 -42 -234 -106
-366 -63 -130 -124 -213 -231 -315 -95 -90 -164 -137 -287 -195 -418 -196
-905 -104 -1229 233 -97 102 -144 169 -203 295 -135 285 -135 619 0 904 58
123 105 192 195 287 102 107 185 168 315 232 193 94 381 127 585 104z"/>
<path d="M983 1806 c-193 -47 -352 -211 -392 -404 -7 -33 -11 -196 -11 -431 0
-336 2 -380 16 -385 32 -12 221 -7 232 7 7 8 12 135 14 372 l3 360 27 51 c92
175 318 202 451 54 65 -72 77 -119 77 -292 l0 -148 -85 0 c-71 0 -85 -3 -85
-16 0 -15 261 -408 278 -418 4 -3 13 -2 18 2 18 12 277 396 278 412 1 12 -16
16 -86 18 l-88 3 0 187 c0 136 -4 204 -15 247 -49 185 -202 336 -386 380 -76
18 -174 18 -246 1z m219 -37 c162 -34 296 -149 361 -311 19 -47 22 -80 27
-278 l5 -225 73 -3 c40 -2 72 -7 70 -12 -7 -19 -213 -319 -220 -320 -4 0 -57
73 -118 163 l-111 162 76 3 75 3 0 174 c0 151 -3 181 -21 229 -27 72 -93 145
-166 181 -50 25 -70 30 -138 30 -68 0 -89 -4 -137 -28 -70 -34 -131 -101 -158
-173 -19 -51 -20 -77 -20 -394 l0 -340 -91 0 -90 0 3 383 c3 375 4 383 27 442
59 148 156 244 296 293 95 34 168 39 257 21z"/>
</g>
</svg>
