<?xml version="1.0" standalone="no"?>
<!DOCTYPE svg PUBLIC "-//W3C//DTD SVG 20010904//EN"
 "http://www.w3.org/TR/2001/REC-SVG-20010904/DTD/svg10.dtd">
<svg version="1.0" xmlns="http://www.w3.org/2000/svg"
 width="512.000000pt" height="512.000000pt" viewBox="0 0 512.000000 512.000000"
 preserveAspectRatio="xMidYMid meet">
<metadata>
Created by potrace 1.15, written by Peter Selinger 2001-2017
</metadata>
<g transform="translate(0.000000,512.000000) scale(0.100000,-0.100000)"
fill="#000000" stroke="none">
<path d="M2363 4910 c-22 -9 -23 -15 -23 -110 l0 -100 -323 0 -323 0 -55 -27
c-35 -19 -64 -43 -84 -71 l-30 -44 0 -338 0 -338 30 -44 c20 -28 49 -52 84
-70 l55 -28 323 0 323 0 0 -29 0 -30 -417 -3 c-402 -3 -420 -4 -463 -24 -70
-33 -572 -352 -597 -380 -27 -30 -31 -99 -9 -142 10 -19 101 -80 293 -199 153
-95 296 -180 318 -190 36 -16 81 -18 458 -21 l417 -3 0 -430 0 -429 -373 0
c-414 0 -435 -3 -524 -63 -88 -61 -107 -100 -319 -672 -108 -291 -202 -558
-209 -593 -17 -78 -7 -160 28 -228 31 -61 112 -138 175 -167 l47 -22 1395 0
1395 0 58 29 c61 29 137 100 164 151 41 78 52 176 29 260 -14 53 -374 1029
-406 1102 -28 65 -101 136 -173 169 l-62 29 -392 3 -393 3 0 429 0 430 323 0
323 0 55 28 c35 18 64 42 84 70 l30 44 0 338 0 338 -30 44 c-20 28 -49 52 -84
71 l-55 27 -323 0 -323 0 0 29 0 30 418 3 c378 3 421 5 457 22 22 10 165 95
318 189 193 119 283 180 293 199 22 43 18 112 -8 142 -26 28 -528 347 -598
380 -43 20 -61 21 -462 24 l-418 3 0 94 c0 129 6 125 -220 124 -96 0 -185 -4
-197 -9z m317 -155 l0 -55 -120 0 -120 0 0 55 0 55 120 0 120 0 0 -55z m945
-183 c77 -36 555 -343 555 -357 0 -19 -548 -352 -600 -364 -68 -16 -1834 -14
-1880 2 -19 7 -44 27 -57 46 -23 33 -23 39 -23 321 0 282 0 288 23 321 13 19
38 39 57 46 27 9 258 12 955 10 l920 -2 50 -23z m-205 -1005 c19 -7 44 -27 57
-46 23 -33 23 -39 23 -321 0 -282 0 -288 -23 -321 -41 -62 -9 -60 -1021 -57
-920 3 -921 3 -963 25 -94 47 -553 337 -553 349 0 6 114 84 253 172 277 176
299 188 354 201 61 14 1831 12 1873 -2z m-742 -1711 c-3 -860 -3 -865 -24
-893 -11 -15 -37 -34 -57 -40 -48 -16 -102 1 -131 40 -21 28 -21 33 -24 893
l-2 864 120 0 120 0 -2 -864z m-338 -477 c0 -401 2 -423 52 -484 100 -121 286
-101 361 40 21 39 22 53 25 428 l3 388 382 -3 382 -3 47 -28 c26 -15 59 -43
74 -63 17 -22 105 -243 230 -582 181 -486 203 -554 204 -608 0 -117 -79 -219
-190 -243 -55 -12 -2622 -16 -2693 -5 -61 11 -138 63 -172 118 -26 44 -30 58
-30 125 0 74 5 89 194 596 106 286 202 536 211 555 25 48 76 95 130 119 43 19
65 21 418 21 l372 0 0 -371z"/>
</g>
</svg>
